Description

Poster: http://cdn.piczend.com/image/m54xr7bkgkx0zemoxkdx7uzgc.jpeg
Release date: 2013
Genre: Thriller
Plot: N/A
--------------------------------

Runtime: N/A
Rating: N/A/10
Votes: N/A
Writer(s)/Director(s): Joseph Farrugia, Tibor Takács/Tibor Takács
Actors: Christa Campbell, Patrick Muldoon, William Hope, Christian Contreras
Trailer: No trailer found.

Screenshots:
 
http://cdn.piczend.com/image/4z5xwqwokwbtzumyyjzoxp2u6.jpeg
 
http://cdn.piczend.com/image/otidza8o5valsfmehfecisqrr.jpeg
 
http://cdn.piczend.com/image/fp7xz3ltcpidnny9oarunw1tq.jpeg
 
http://cdn.piczend.com/image/t1ikjqfyocnie7lufeytdxyee.jpeg


Mediainfo:
General
Complete name : 	Spiders (2013) DVDRip 352p [Zend]/Spiders (2013) DVDRip 352p [Zend].mp4
Format : 	MPEG-4
Format profile : 	Base Media
Codec ID : 	isom
File size : 	1.01 GiB
Duration : 	1h 29mn
Overall bit rate : 	1 615 Kbps
Writing application : 	Lavf53.21.1

Video
ID : 	1
Format : 	AVC
Format/Info : 	Advanced Video Codec
Format profile : 	Main@L3.0
Format settings, CABAC : 	Yes
Format settings, ReFrames : 	3 frames
Codec ID : 	avc1
Codec ID/Info : 	Advanced Video Coding
Duration : 	1h 29mn
Bit rate : 	1 500 Kbps
Width : 	624 pixels
Height : 	352 pixels
Display aspect ratio : 	16:9
Frame rate mode : 	Constant
Frame rate : 	23.976 fps
Color space : 	YUV
Chroma subsampling : 	4:2:0
Bit depth : 	8 bits
Scan type : 	Progressive
Bits/(Pixel*Frame) : 	0.285
Stream size : 	947 MiB (92%)
Writing library : 	x264 core 123 r2189 35cf912
Encoding settings : 	cabac=1 / ref=3 / deblock=1:0:0 / analyse=0x1:0x111 / me=hex / subme=7 / psy=1 / psy_rd=1.00:0.00 / mixed_ref=0 / me_range=16 / chroma_me=1 / trellis=1 / 8x8dct=0 / cqm=0 / deadzone=21,11 / fast_pskip=1 / chroma_qp_offset=-2 / threads=6 / sliced_threads=0 / nr=0 / decimate=1 / interlaced=0 / bluray_compat=0 / constrained_intra=0 / bframes=3 / b_pyramid=0 / b_adapt=1 / b_bias=0 / direct=1 / weightb=0 / open_gop=1 / weightp=2 / keyint=250 / keyint_min=23 / scenecut=40 / intra_refresh=0 / rc_lookahead=40 / rc=abr / mbtree=1 / bitrate=1500 / ratetol=1.0 / qcomp=0.60 / qpmin=0 / qpmax=69 / qpstep=4 / ip_ratio=1.25 / aq=1:1.00

Audio
ID : 	2
Format : 	MPEG Audio
Format version : 	Version 1
Format profile : 	Layer 3
Mode : 	Joint stereo
Mode extension : 	MS Stereo
Codec ID : 	6B
Duration : 	1h 29mn
Bit rate mode : 	Constant
Bit rate : 	128 Kbps
Channel(s) : 	2 channels
Sampling rate : 	48.0 KHz
Compression mode : 	Lossy
Delay relative to video : 	42ms
Stream size : 	81.7 MiB (8%)
Writing library : 	LAME3.99.5
